
        <svg xmlns="http://www.w3.org/2000/svg" xmlns:xlink="http://www.w3.org/1999/xlink" version="1.1" width="3187.5" height="648.7500071525574" viewBox="0 0 3187.5 648.7500071525574">
			
			<g transform="scale(9.375) translate(10, 10)">
				<defs id="SvgjsDefs1154"/><g id="SvgjsG1155" featureKey="5TMTKC-0" transform="matrix(2,0,0,2,0,-25.39999771118164)" fill="#fff"><path xmlns="http://www.w3.org/2000/svg" d="M37.7,12.7c-2.1,0-4.1,0.5-5.9,1.5c-1,0.6-1.9,1.3-2.7,2.1L25,20.4l-4.1-4.1c-0.8-0.8-1.7-1.5-2.7-2.1  c-1.8-1-3.9-1.5-5.9-1.5C5.5,12.7,0,18.2,0,25c0,6.8,5.5,12.3,12.3,12.3c2.1,0,4.1-0.5,5.9-1.5c1-0.6,1.9-1.2,2.7-2.1l4.1-4.1  l4.1,4.1c0.8,0.8,1.7,1.5,2.7,2.1c1.8,1,3.9,1.5,5.9,1.5C44.5,37.3,50,31.8,50,25C50,18.2,44.5,12.7,37.7,12.7z M16.3,29.1  c-0.4,0.4-0.8,0.7-1.3,1c-0.9,0.5-1.8,0.7-2.8,0.7c-3.2,0-5.7-2.6-5.7-5.7s2.6-5.7,5.7-5.7c1,0,1.9,0.2,2.8,0.7  c0.5,0.3,0.9,0.6,1.3,1l4.1,4.1L16.3,29.1z M37.7,30.7c-1,0-1.9-0.2-2.8-0.7c-0.5-0.3-0.9-0.6-1.3-1L29.6,25l4.1-4.1  c0.4-0.4,0.8-0.7,1.3-1c0.9-0.5,1.8-0.7,2.8-0.7c3.2,0,5.7,2.6,5.7,5.7C43.5,28.2,40.9,30.7,37.7,30.7z"/></g><g id="SvgjsG1156" featureKey="7UBp9i-0" transform="matrix(2.472187606507373,0,0,2.472187606507373,116.58838317776222,-7.140911411705661)" fill="#fff"><path d="M8.12 5.720000000000001 c3.0266 0 4.54 1.1733 4.54 3.52 c0 1.3467 -0.64666 2.3466 -1.94 3 c0.88 0.25334 1.5367 0.69668 1.97 1.33 s0.65 1.3967 0.65 2.29 c0 1.28 -0.46334 2.29 -1.39 3.03 s-2.1434 1.11 -3.65 1.11 l-6.92 0 l0 -14.28 l6.74 0 z M7.72 11.5 c1.2667 0 1.9 -0.56666 1.9 -1.7 c0 -1.0933 -0.70666 -1.64 -2.12 -1.64 l-2.98 0 l0 3.34 l3.2 0 z M7.9 17.56 c1.5333 0 2.3 -0.62666 2.3 -1.88 c0 -1.36 -0.74666 -2.04 -2.24 -2.04 l-3.44 0 l0 3.92 l3.38 0 z M18.08 5.720000000000001 l0 2.34 l-2.84 0 l0 -2.34 l2.84 0 z M18.08 9.66 l0 10.34 l-2.84 0 l0 -10.34 l2.84 0 z M28.800000000000004 9.66 l0 2.14 l-5.38 6.06 l5.76 0 l0 2.14 l-9.5 0 l0 -2.14 l5.38 -6.06 l-4.98 0 l0 -2.14 l8.72 0 z M37.120000000000005 5.720000000000001 c2.0266 0 3.62 0.62666 4.78 1.88 s1.74 2.98 1.74 5.18 c0 2.28 -0.58334 4.0534 -1.75 5.32 s-2.73 1.9 -4.69 1.9 l-6.2 0 l0 -14.28 l6.12 0 z M36.92 17.36 c1.1333 0 2.0134 -0.37334 2.64 -1.12 s0.94 -1.8067 0.94 -3.18 c0 -1.5733 -0.33666 -2.75 -1.01 -3.53 s-1.71 -1.17 -3.11 -1.17 l-2.24 0 l0 9 l2.78 0 z M50.28 9.38 c3.0134 0.01334 4.52 0.9933 4.52 2.94 l0 5.48 c0 1.0133 0.12 1.7467 0.36 2.2 l-2.88 0 c-0.10666 -0.32 -0.17332 -0.65334 -0.19998 -1 c-0.84 0.85334 -2 1.28 -3.48 1.28 c-1.08 0 -1.9367 -0.27334 -2.57 -0.82 s-0.95 -1.3067 -0.95 -2.28 c0 -0.94666 0.3 -1.68 0.9 -2.2 c0.61334 -0.54666 1.7267 -0.89332 3.34 -1.04 c1.1467 -0.12 1.8733 -0.27 2.18 -0.45 s0.46 -0.45666 0.46 -0.83 c0 -0.46666 -0.14 -0.81332 -0.42 -1.04 s-0.74666 -0.34 -1.4 -0.34 c-0.6 0 -1.0533 0.12334 -1.36 0.37 s-0.48666 0.64332 -0.54 1.19 l-2.84 0 c0.06666 -1.1333 0.53332 -1.9933 1.4 -2.58 s2.0266 -0.88 3.48 -0.88 z M47.92 17.06 c0 0.88 0.58 1.32 1.74 1.32 c1.52 -0.01334 2.2866 -0.79334 2.3 -2.34 l0 -1.1 c-0.22666 0.22666 -0.8 0.39332 -1.72 0.49998 c-0.8 0.09334 -1.3867 0.25668 -1.76 0.49002 s-0.56 0.61 -0.56 1.13 z M60.6 6.5600000000000005 l0.000019531 3.1 l2.08 0 l0 1.9 l-2.08 0 l0 5.12 c0 0.48 0.08 0.8 0.24 0.96 s0.48 0.24 0.96 0.24 c0.34666 0 0.64 -0.02666 0.88 -0.08 l0 2.22 c-0.4 0.06666 -0.96 0.1 -1.68 0.1 c-1.0933 0 -1.9067 -0.18666 -2.44 -0.56 s-0.8 -1.02 -0.8 -1.94 l0 -6.06 l-1.72 0 l0 -1.9 l1.72 0 l0 -3.1 l2.84 0 z M68.8 9.38 c3.0134 0.01334 4.52 0.9933 4.52 2.94 l0 5.48 c0 1.0133 0.12 1.7467 0.36 2.2 l-2.88 0 c-0.10666 -0.32 -0.17332 -0.65334 -0.19998 -1 c-0.84 0.85334 -2 1.28 -3.48 1.28 c-1.08 0 -1.9367 -0.27334 -2.57 -0.82 s-0.95 -1.3067 -0.95 -2.28 c0 -0.94666 0.3 -1.68 0.9 -2.2 c0.61334 -0.54666 1.7267 -0.89332 3.34 -1.04 c1.1467 -0.12 1.8733 -0.27 2.18 -0.45 s0.46 -0.45666 0.46 -0.83 c0 -0.46666 -0.14 -0.81332 -0.42 -1.04 s-0.74666 -0.34 -1.4 -0.34 c-0.6 0 -1.0533 0.12334 -1.36 0.37 s-0.48666 0.64332 -0.54 1.19 l-2.84 0 c0.06666 -1.1333 0.53332 -1.9933 1.4 -2.58 s2.0266 -0.88 3.48 -0.88 z M66.44 17.06 c0 0.88 0.58 1.32 1.74 1.32 c1.52 -0.01334 2.2866 -0.79334 2.3 -2.34 l0 -1.1 c-0.22666 0.22666 -0.8 0.39332 -1.72 0.49998 c-0.8 0.09334 -1.3867 0.25668 -1.76 0.49002 s-0.56 0.61 -0.56 1.13 z M82.28 6 l0 14 l-2.84 0 l0 -9.08 l-3.52 0 l0 -2.14 l0.2 0 c2.3066 0 3.6066 -0.92666 3.9 -2.78 l2.26 0 z"/></g>
			</g>
		</svg>
	